<svg width="31" height="26" viewBox="0 0 31 26" fill="none" xmlns="http://www.w3.org/2000/svg">
<path d="M1.68741 8.12505H29.3126M0.852016 8.84048L14.648 24.6292C14.7483 24.7446 14.8773 24.838 15.025 24.9023C15.1727 24.9666 15.3353 25 15.5 25C15.6647 25 15.8273 24.9666 15.975 24.9023C16.1227 24.838 16.2517 24.7446 16.352 24.6292L30.148 8.84048C30.2836 8.68465 30.3623 8.49608 30.3736 8.29984C30.3848 8.1036 30.3282 7.90898 30.2111 7.74184L25.5314 1.07676C25.435 0.938832 25.3003 0.824923 25.1401 0.745855C24.9798 0.666787 24.7993 0.625186 24.6156 0.625004H6.38435C6.20073 0.625186 6.0202 0.666787 5.85993 0.745855C5.69965 0.824923 5.56495 0.938832 5.46861 1.07676L0.78893 7.74184C0.671826 7.90898 0.615141 8.1036 0.62641 8.29984C0.637678 8.49608 0.716366 8.68465 0.852016 8.84048Z" stroke="white" stroke-width="1.25" stroke-linecap="round" stroke-linejoin="round"/>
</svg>
